<svg height="85.516" viewBox="0 0 358.241 85.516" width="358.241" xmlns="http://www.w3.org/2000/svg"><g fill="#fff"><path d="m0 31.297h29.642l6.754 6.754v13.226l-2.72 2.814 4.784 4.878v12.382l-7.317 7.317h-31.143zm24.952 19.793 2.439-2.439v-7.317l-2.345-2.345h-16.041v12.101zm1.595 19.793 2.908-2.908v-6.66l-2.908-2.908h-17.542v12.382h17.542z"/><path d="m43.619 31.297h9.193v39.492h23.639v7.786h-32.832z"/><path d="m97.932 31.297h8.349l17.26 47.278h-9.287l-3.846-10.506h-16.604l-3.846 10.506h-9.287l17.26-47.278zm10.412 29.267-6.285-18.011h-.094l-6.097 18.011s12.476 0 12.476 0z"/><path d="m127.762 71.258 24.202-32.175v-.094h-23.545v-7.692h34.614v7.317l-24.202 32.175v.094h24.202v7.692h-35.271z"/><path d="m169.036 31.297h9.193v47.278h-9.193z"/><path d="m184.327 31.297h8.255l21.106 32.081h.094v-32.081h8.818v47.278h-8.255l-21.106-31.987h-.094v31.987h-8.818z"/><path d="m227.758 70.789v-31.706l7.786-7.786h23.545l7.598 7.598v7.223h-9.193v-3.846l-3.189-3.189h-13.883l-3.471 3.471v24.764l3.471 3.471h14.071l3.283-3.283v-7.317h-10.131v-7.88h19.042v18.573l-7.786 7.786h-23.357l-7.786-7.88z"/><path d="m274.286 31.297h4.503l15.572 38.46h.094l15.572-38.46h4.596v47.278h-3.752v-39.961h-.094l-14.727 35.552h-3.283l-14.727-35.552h-.094v39.961h-3.752v-47.278h.094z"/><path d="m358.241 83.077-2.439 2.439-6.848-6.942h-19.418l-7.129-7.129v-33.113l7.129-7.129h20.825l7.129 7.129v33.113l-5.347 5.347 6.097 6.285zm-4.784-12.945v-30.487l-4.972-4.878h-17.26l-4.972 4.878v30.487l4.972 4.972h17.26z"/><path d="m0 0h2.344v21.59h-2.344z"/><path d="m7.433 0h2.282l11.258 17.766h.062v-17.766h2.221v21.59h-2.282l-11.259-17.765h-.062v17.765h-2.221v-21.59z"/><path d="m33.186 2.066h-6.539v-2.066h15.421v2.066h-6.539v19.524h-2.344v-19.524z"/><path d="m60.759 14.99v6.6h-2.344v-5.953l-2.961-3.115h-7.649v9.068h-2.344v-21.59h12.337l2.838 2.838v6.816l-2.499 2.498zm-12.954-4.503h8.975l1.542-1.511v-5.429l-1.542-1.511h-8.975v8.45z"/><path d="m65.231 18.197v-14.804l3.393-3.393h9.746l3.393 3.393v14.805l-3.393 3.393h-9.746l-3.393-3.393zm12.09 1.295 2.098-2.066v-13.262l-2.098-2.066h-7.649l-2.097 2.066v13.262l2.097 2.066z"/><path d="m86.388 0h12.46l3.393 3.393v14.805l-3.393 3.393h-12.46zm11.412 19.493 2.098-2.066v-13.263l-2.098-2.066h-9.067v17.395z"/><path d="m106.867 18.197v-18.197h2.344v17.426l2.097 2.066h7.032l2.097-2.066v-17.426h2.344v18.197l-3.393 3.393h-9.129l-3.393-3.393z"/><path d="m127.408 18.197v-14.804l3.393-3.393h9.252l3.27 3.27v1.974h-2.344v-1.203l-1.974-1.943h-7.156l-2.097 2.066v13.262l2.097 2.066h7.156l1.974-1.943v-1.203h2.344v1.974l-3.27 3.27h-9.252z"/><path d="m147.332 0h2.344v21.59h-2.344z"/><path d="m154.765 0h2.282l11.258 17.766h.062v-17.766h2.221v21.59h-2.282l-11.258-17.765h-.062v17.765h-2.221z"/><path d="m175.213 18.197v-14.804l3.393-3.393h9.438l3.27 3.27v1.974h-2.344v-1.203l-1.974-1.943h-7.341l-2.097 2.066v13.262l2.097 2.066h7.217l2.097-2.066v-4.997h-4.873v-2.097h7.217v7.865l-3.393 3.393h-9.314z"/></g></svg>