<?xml version="1.0" encoding="utf-8"?>
<!-- Generator: Adobe Illustrator 26.5.0, SVG Export Plug-In . SVG Version: 6.00 Build 0)  -->
<svg version="1.1" id="Layer_1" xmlns="http://www.w3.org/2000/svg" xmlns:xlink="http://www.w3.org/1999/xlink" x="0px" y="0px"
	 viewBox="0 0 182 180.1" style="enable-background:new 0 0 182 180.1;" xml:space="preserve">
<style type="text/css">
	.st0{fill:#515657;}
	.st1{fill:#A1B4B4;}
	.st2{fill:#768589;}
	.st3{fill:#EA7110;}
	.st4{fill:#EABD00;}
	.st5{fill:#FF7B11;}
	.st6{fill:#FFCE00;}
	.st7{fill:#E81E25;}
	.st8{fill:#FF5905;}
	.st9{fill:#FF0011;}
	.st10{fill:#C1272D;}
	.st11{fill:#E84F06;}
	.st12{display:none;}
	.st13{display:inline;fill:#FFFFFF;stroke:#000000;stroke-width:2;stroke-linejoin:round;stroke-miterlimit:10;}
	.st14{display:inline;fill:none;stroke:#000000;stroke-width:2;stroke-linejoin:round;stroke-miterlimit:10;}
	.st15{display:inline;}
	.st16{fill:#FFFFFF;}
	.st17{fill:none;stroke:#000000;stroke-width:2;stroke-linejoin:round;stroke-miterlimit:10;}
</style>
<g>
	<g>
		<polygon class="st0" points="26,90.1 26,120.1 52,105.1 52,75.1 		"/>
		<polygon class="st1" points="52,135.1 26,120.1 26,90.1 0,75.1 0,105.1 0,135.1 26,150.1 52,165.1 78,180.1 78,150.1 		"/>
		<polygon class="st1" points="104,75.1 104,105.1 130,120.1 130,90.1 		"/>
		<polygon class="st2" points="104,105.1 78,120.1 52,105.1 26,120.1 52,135.1 78,150.1 104,135.1 130,120.1 		"/>
		<polygon class="st0" points="104,135.1 78,150.1 78,180.1 104,165.1 130,150.1 130,120.1 		"/>
		<polygon class="st0" points="130,90.1 130,120.1 156,105.1 156,75.1 		"/>
		<polygon class="st1" points="130,120.1 130,150.1 156,165.1 156,135.1 		"/>
		<polygon class="st2" points="156,105.1 130,120.1 156,135.1 182,120.1 		"/>
		<polygon class="st0" points="156,135.1 156,165.1 182,150.1 182,120.1 		"/>
	</g>
	<g>
		<path class="st3" d="M26,60.1l13,7.5l-13,7.5V60.1z"/>
		<polygon class="st4" points="39,67.6 26,75.1 26,90.1 39,82.6 52,75.1 		"/>
		<polygon class="st5" points="13,52.6 0,45.1 0,60.1 13,67.6 26,75.1 26,60.1 		"/>
		<polygon class="st6" points="13,67.6 0,60.1 0,75.1 13,82.6 26,90.1 26,75.1 		"/>
		<polygon class="st5" points="117.1,67.6 130.1,75.1 130.1,60.1 		"/>
		<polygon class="st6" points="117.1,67.6 104.1,75.1 117.1,82.6 130.1,90.1 130.1,75.1 		"/>
		<polygon class="st7" points="65,52.6 52,45.1 39,37.6 26,30.1 13,22.6 0,15.1 0,30.1 13,37.6 26,45.1 39,52.6 52,60.1 65,67.6 
			78,75.1 78,60.1 		"/>
		<polygon class="st8" points="65,67.6 52,60.1 39,52.6 26,45.1 13,37.6 0,30.1 0,45.1 13,52.6 26,60.1 39,67.6 52,75.1 65,82.6 
			78,90.1 78,75.1 		"/>
		<polygon class="st9" points="143.1,7.5 130.1,0 117.1,7.5 104.1,15.1 91.1,22.6 78,30.1 65,22.6 52,15.1 39,7.5 26,0 13,7.5 
			0,15.1 13,22.6 26,30.1 39,37.6 52,45.1 65,52.6 78,60.1 91.1,52.6 104.1,45.1 117.1,37.6 130.1,30.1 143.1,22.6 156.1,15.1 		"/>
		<polygon class="st10" points="143.1,22.6 130.1,30.1 117.1,37.6 104.1,45.1 91.1,52.6 78,60.1 78,75.1 91.1,67.6 104.1,60.1 
			117.1,52.6 130.1,45.1 143.1,37.6 156.1,30.1 156.1,15.1 		"/>
		<polygon class="st11" points="143.1,37.6 130.1,45.1 117.1,52.6 104.1,60.1 91.1,67.6 78,75.1 78,90.1 91.1,82.6 104.1,75.1 
			117.1,67.6 130.1,60.1 143.1,52.6 156.1,45.1 156.1,30.1 		"/>
		<polygon class="st3" points="143.1,52.6 130.1,60.1 130.1,75.1 143.1,67.6 156.1,60.1 156.1,45.1 		"/>
		<polygon class="st4" points="143.1,67.6 130.1,75.1 130.1,90.1 143.1,82.6 156.1,75.1 156.1,60.1 		"/>
	</g>
</g>
<g class="st12">
	<polygon class="st13" points="93.9,147.7 93.9,177.7 119.9,162.7 119.9,132.7 	"/>
	<polygon class="st13" points="119.9,192.7 93.9,177.7 93.9,147.7 67.9,132.7 67.9,162.7 67.9,192.7 93.9,207.7 119.9,222.7 
		145.9,237.7 145.9,207.7 	"/>
	<polygon class="st13" points="171.9,132.7 171.9,162.7 197.9,177.7 197.9,147.7 	"/>
	<polygon class="st13" points="171.9,162.7 145.9,177.7 119.9,162.7 93.9,177.7 119.9,192.7 145.9,207.7 171.9,192.7 197.9,177.7 	
		"/>
	<polygon class="st13" points="171.9,192.7 145.9,207.7 145.9,237.7 171.9,222.7 197.9,207.7 197.9,177.7 	"/>
	<polygon class="st13" points="197.9,147.7 197.9,177.7 223.9,162.7 223.9,132.7 	"/>
	<polygon class="st13" points="197.9,177.7 197.9,207.7 223.9,222.7 223.9,192.7 	"/>
	<polygon class="st13" points="223.9,162.7 197.9,177.7 223.9,192.7 249.9,177.7 	"/>
	<polygon class="st13" points="223.9,192.7 223.9,222.7 249.9,207.7 249.9,177.7 	"/>
	<polygon class="st13" points="67.9,72.7 67.9,132.7 93.9,147.7 93.9,117.7 145.9,147.7 197.9,117.7 197.9,147.7 223.9,132.7 
		223.9,72.7 145.9,117.7 	"/>
	<line class="st14" x1="145.9" y1="132.7" x2="67.9" y2="87.7"/>
	<line class="st14" x1="145.9" y1="147.7" x2="67.9" y2="102.7"/>
	<line class="st14" x1="93.9" y1="131.4" x2="67.9" y2="116.4"/>
	<line class="st14" x1="145.9" y1="132.7" x2="223.9" y2="87.7"/>
	<line class="st14" x1="145.9" y1="147.7" x2="223.9" y2="102.7"/>
	<line class="st14" x1="197.9" y1="131.4" x2="223.9" y2="116.4"/>
	<line class="st14" x1="145.9" y1="147.7" x2="145.9" y2="117.7"/>
	<polygon class="st13" points="93.9,117.7 93.9,147.7 119.9,132.7 	"/>
	<polygon class="st13" points="197.9,147.7 171.9,132.7 197.9,117.7 	"/>
	<g class="st15">
		<polygon class="st16" points="197.9,57.7 171.9,72.7 145.9,87.7 119.9,72.7 93.9,57.7 67.9,72.7 93.9,87.7 119.9,102.7 
			145.9,117.7 171.9,102.7 197.9,87.7 223.9,72.7 		"/>
		<polygon class="st17" points="197.9,57.7 171.9,72.7 145.9,87.7 119.9,72.7 93.9,57.7 67.9,72.7 93.9,87.7 119.9,102.7 
			145.9,117.7 171.9,102.7 197.9,87.7 223.9,72.7 		"/>
	</g>
</g>
</svg>
