<?xml version="1.0" encoding="UTF-8" standalone="no"?>
<svg
   enable-background="new 0 0 1252.7 180.1"
   viewBox="0 0 1252.7 180.1"
   version="1.1"
   id="svg66"
   sodipodi:docname="blazingmq_logo_label_dark.svg"
   inkscape:version="1.2 (dc2aeda, 2022-05-15)"
   xmlns:inkscape="http://www.inkscape.org/namespaces/inkscape"
   xmlns:sodipodi="http://sodipodi.sourceforge.net/DTD/sodipodi-0.dtd"
   xmlns="http://www.w3.org/2000/svg"
   xmlns:svg="http://www.w3.org/2000/svg">
  <defs
     id="defs70" />
  <sodipodi:namedview
     id="namedview68"
     pagecolor="#ffffff"
     bordercolor="#000000"
     borderopacity="0.25"
     inkscape:showpageshadow="2"
     inkscape:pageopacity="1"
     inkscape:pagecheckerboard="0"
     inkscape:deskcolor="#d1d1d1"
     showgrid="false"
     inkscape:zoom="0.99465159"
     inkscape:cx="245.31203"
     inkscape:cy="99.029651"
     inkscape:window-width="1728"
     inkscape:window-height="979"
     inkscape:window-x="0"
     inkscape:window-y="481"
     inkscape:window-maximized="1"
     inkscape:current-layer="svg66" />
  <path
     d="m26 90.1v30l26-15v-30z"
     fill="#515657"
     id="path2" />
  <path
     d="m52 135.1-26-15v-30l-26-15v30 30l26 15 26 15 26 15v-30z"
     fill="#a1b4b4"
     id="path4" />
  <path
     d="m104 75.1v30l26 15v-30z"
     fill="#a1b4b4"
     id="path6" />
  <path
     d="m104 105.1-26 15-26-15-26 15 26 15 26 15 26-15 26-15z"
     fill="#768589"
     id="path8" />
  <path
     d="m104 135.1-26 15v30l26-15 26-15v-30z"
     fill="#515657"
     id="path10" />
  <path
     d="m130 90.1v30l26-15v-30z"
     fill="#515657"
     id="path12" />
  <path
     d="m130 120.1v30l26 15v-30z"
     fill="#a1b4b4"
     id="path14" />
  <path
     d="m156 105.1-26 15 26 15 26-15z"
     fill="#768589"
     id="path16" />
  <path
     d="m156 135.1v30l26-15v-30z"
     fill="#515657"
     id="path18" />
  <path
     d="m26 60.1 13 7.5-13 7.5z"
     fill="#ea7110"
     id="path20" />
  <path
     d="m39 67.6-13 7.5v15l13-7.5 13-7.5z"
     fill="#eabd00"
     id="path22" />
  <path
     d="m13 52.6-13-7.5v15l13 7.5 13 7.5v-15z"
     fill="#ff7b11"
     id="path24" />
  <path
     d="m13 67.6-13-7.5v15l13 7.5 13 7.5v-15z"
     fill="#ffce00"
     id="path26" />
  <path
     d="m117.1 67.6 13 7.5v-15z"
     fill="#ff7b11"
     id="path28" />
  <path
     d="m117.1 67.6-13 7.5 13 7.5 13 7.5v-15z"
     fill="#ffce00"
     id="path30" />
  <path
     d="m65 52.6-13-7.5-13-7.5-13-7.5-13-7.5-13-7.5v15l13 7.5 13 7.5 13 7.5 13 7.5 13 7.5 13 7.5v-15z"
     fill="#e81e25"
     id="path32" />
  <path
     d="m65 67.6-13-7.5-13-7.5-13-7.5-13-7.5-13-7.5v15l13 7.5 13 7.5 13 7.5 13 7.5 13 7.5 13 7.5v-15z"
     fill="#ff5905"
     id="path34" />
  <path
     d="m143.1 7.5-13-7.5-13 7.5-13 7.6-13 7.5-13.1 7.5-13-7.5-13-7.5-13-7.6-13-7.5-13 7.5-13 7.6 13 7.5 13 7.5 13 7.5 13 7.5 13 7.5 13 7.5 13.1-7.5 13-7.5 13-7.5 13-7.5 13-7.5 13-7.5z"
     fill="#f01"
     id="path36" />
  <path
     d="m143.1 22.6-13 7.5-13 7.5-13 7.5-13 7.5-13.1 7.5v15l13.1-7.5 13-7.5 13-7.5 13-7.5 13-7.5 13-7.5v-15z"
     fill="#c1272d"
     id="path38" />
  <path
     d="m143.1 37.6-13 7.5-13 7.5-13 7.5-13 7.5-13.1 7.5v15l13.1-7.5 13-7.5 13-7.5 13-7.5 13-7.5 13-7.5v-15z"
     fill="#e84f06"
     id="path40" />
  <path
     d="m143.1 52.6-13 7.5v15l13-7.5 13-7.5v-15z"
     fill="#ea7110"
     id="path42" />
  <path
     d="m143.1 67.6-13 7.5v15l13-7.5 13-7.5v-15z"
     fill="#eabd00"
     id="path44" />
  <g
     fill="#000"
     id="g64"
     style="fill:#ffffff;fill-opacity:1">
    <path
       d="m231.2 15.5h84.5l19.3 19.3v37.6l-7.8 8 13.6 13.9v35.3l-20.9 20.9h-88.8v-135c0 0 .1 0 .1 0zm71.2 56.4 7-7v-20.9l-6.7-6.7h-45.7v34.5h45.4zm4.5 56.4 8.3-8.3v-19l-8.3-8.3h-50v35.3h50z"
       id="path46"
       style="fill:#ffffff;fill-opacity:1" />
    <path
       d="m355.6 15.5h26.2v112.6h67.4v22.2h-93.6z"
       id="path48"
       style="fill:#ffffff;fill-opacity:1" />
    <path
       d="m510.5 15.5h23.8l49.2 134.8h-26.5l-11-30h-47.3l-11 30h-26.5zm29.7 83.4-17.9-51.4h-.3l-17.4 51.4z"
       id="path50"
       style="fill:#ffffff;fill-opacity:1" />
    <path
       d="m595.5 129.4 69-91.7v-.3h-67.1v-21.9h98.7v20.9l-69 91.7v.3h69v21.9h-100.6z"
       id="path52"
       style="fill:#ffffff;fill-opacity:1" />
    <path
       d="m713.2 15.5h26.2v134.8h-26.2z"
       id="path54"
       style="fill:#ffffff;fill-opacity:1" />
    <path
       d="m756.8 15.5h23.5l60.2 91.5h.3v-91.5h25.1v134.8h-23.5l-60.2-91.2h-.3v91.2h-25.1z"
       id="path56"
       style="fill:#ffffff;fill-opacity:1" />
    <path
       d="m880.6 128.1v-90.4l22.2-22.2h67.1l21.7 21.7v20.6h-26.2v-11l-9.1-9.1h-39.6l-9.9 9.9v70.6l9.9 9.9h40.1l9.4-9.4v-20.9h-28.9v-22.4h54.3v53l-22.2 22.2h-66.6z"
       id="path58"
       style="fill:#ffffff;fill-opacity:1" />
    <path
       d="m1013.3 15.5h12.8l44.4 109.7h.3l44.4-109.7h13.1v134.8h-10.7v-114h-.3l-42 101.4h-9.4l-42-101.4h-.3v113.9h-10.7v-134.7z"
       id="path60"
       style="fill:#ffffff;fill-opacity:1" />
    <path
       d="m1252.7 163.1-7 7-19.5-19.8h-55.4l-20.3-20.3v-94.5l20.3-20.3h59.4l20.3 20.3v94.4l-15.2 15.2zm-13.7-36.9v-86.9l-14.1-13.9h-49.2l-14.2 13.9v86.9l14.2 14.2h49.2z"
       id="path62"
       style="fill:#ffffff;fill-opacity:1" />
  </g>
</svg>
