<?xml version="1.0" encoding="utf-8"?>
<!-- Generator: Adobe Illustrator 26.5.0, SVG Export Plug-In . SVG Version: 6.00 Build 0)  -->
<svg version="1.1" id="Layer_1" xmlns="http://www.w3.org/2000/svg" xmlns:xlink="http://www.w3.org/1999/xlink" x="0px" y="0px"
	 viewBox="0 0 1000 400" style="enable-background:new 0 0 1000 400;" xml:space="preserve">
<style type="text/css">
	.st0{fill:none;stroke:#000000;stroke-width:2.0381;stroke-miterlimit:10;}
	.st1{fill:none;stroke:#000000;stroke-width:2;stroke-miterlimit:10;}
	.st2{fill:#22B573;}
	.st3{fill:#FFFFFF;}
	.st4{fill:none;stroke:#000000;stroke-width:1.9704;stroke-miterlimit:10;}
	.st5{fill:url(#icon-tunnel_00000168115005886705134000000010261350448525265324_);}
	.st6{fill:#F7931E;}
	.st7{fill:#0071BC;}
	.st8{fill:#F462A7;}
	.st9{fill:#00A99D;}
	.st10{fill:#8CC63F;}
	.st11{fill:none;stroke:#D9E021;stroke-width:4;stroke-miterlimit:10;}
</style>
<g>
	<path d="M775.6,376.3v-11.3l2.8-2.8h8.2l2.7,2.7v2.6H786v-1.4l-1.1-1.1H780l-1.2,1.2v8.8l1.2,1.2h4.8l1.1-1.1v-1.4h3.3v2.6
		l-2.7,2.7h-8.2L775.6,376.3z"/>
	<path d="M791.3,376.3v-11.3l2.8-2.8h8.6l2.8,2.8v11.3l-2.8,2.8H794L791.3,376.3z M801,376.3l1.2-1.2v-8.8l-1.2-1.2h-5.2l-1.2,1.2
		v8.8l1.2,1.2H801z"/>
	<path d="M808.3,362.3h2.9l7.5,11.4h0v-11.4h3.1v16.8H819l-7.5-11.4h0v11.4h-3.1V362.3z"/>
	<path d="M824.7,376.5v-2.4h3.2v1.4l0.8,0.8h5l0.8-0.8v-2.8l-0.8-0.8h-6.4l-2.6-2.6v-4.4l2.6-2.6h7.6l2.6,2.6v2.4h-3.2v-1.4
		l-0.8-0.8h-4.8l-0.8,0.8v2.5l0.8,0.8h6.4l2.6,2.6v4.7l-2.6,2.6h-7.8L824.7,376.5z"/>
	<path d="M840.3,376.2v-13.9h3.3v12.8l1.2,1.2h4.7l1.2-1.2v-12.8h3.3v13.9l-2.9,2.9h-7.9L840.3,376.2z"/>
	<path d="M857.1,362.3h3l5,10.8h0l5-10.8h3v16.8h-3.1v-10.2h0l-3.9,7.9h-2l-3.8-7.9h0v10.2h-3.1V362.3z"/>
	<path d="M876.4,362.3h12.1v2.8h-8.9v4.2h8.2v2.7h-8.2v4.3h8.9v2.8h-12.1V362.3z"/>
	<path d="M904.1,373.5v5.6h-3.3v-4.8l-1.4-1.6h-5.2v6.4h-3.3v-16.8h10.5l2.6,2.6v5.1l-1.6,1.7L904.1,373.5z M894.2,370h5.8l0.8-0.8
		v-3.3L900,365h-5.8V370z"/>
	<path d="M906.7,376.5v-2.4h3.2v1.4l0.8,0.8h5l0.8-0.8v-2.8l-0.8-0.8h-6.4l-2.6-2.6v-4.4l2.6-2.6h7.6l2.6,2.6v2.4h-3.2v-1.4
		l-0.8-0.8h-4.8l-0.8,0.8v2.5l0.8,0.8h6.4l2.6,2.6v4.7l-2.6,2.6h-7.8L906.7,376.5z"/>
</g>
<g>
	<path d="M272.8,365.3h10.5l2.4,2.4v4.7l-1,1l1.7,1.7v4.4l-2.6,2.6h-11.1V365.3z M281.7,372.3l0.9-0.9v-2.6l-0.8-0.8H276v4.3H281.7z
		 M282.2,379.4l1-1V376l-1-1H276v4.4H282.2z"/>
	<path d="M288.9,365.3h3l5,10.8h0l5-10.8h3v16.8h-3.1v-10.2h0l-3.9,7.9h-2l-3.8-7.9h0v10.2h-3.1V365.3z"/>
	<path d="M322.5,383.4l-2,2l-3.4-3.4h-6.5l-2.8-2.8v-11.3l2.8-2.8h8.6l2.8,2.8v11.3l-1.8,1.8L322.5,383.4z M317.5,379.3l1.2-1.2
		v-8.8l-1.2-1.2h-5.2l-1.2,1.2v8.8l1.2,1.2H317.5z"/>
	<path d="M345.9,383.4l-2,2l-3.4-3.4H334l-2.8-2.8v-11.3l2.8-2.8h8.6l2.8,2.8v11.3l-1.8,1.8L345.9,383.4z M340.9,379.3l1.2-1.2v-8.8
		l-1.2-1.2h-5.2l-1.2,1.2v8.8l1.2,1.2H340.9z"/>
	<path d="M348.2,379.2v-13.9h3.3v12.8l1.2,1.2h4.7l1.2-1.2v-12.8h3.3v13.9l-2.9,2.9h-7.9L348.2,379.2z"/>
	<path d="M365,365.3h12.1v2.8h-8.9v4.2h8.2v2.7h-8.2v4.3h8.9v2.8H365V365.3z"/>
	<path d="M379.6,379.2v-13.9h3.3v12.8l1.2,1.2h4.7l1.2-1.2v-12.8h3.3v13.9l-2.9,2.9h-7.9L379.6,379.2z"/>
	<path d="M396.4,365.3h12.1v2.8h-8.9v4.2h8.2v2.7h-8.2v4.3h8.9v2.8h-12.1V365.3z"/>
</g>
<g>
	<path d="M-0.2,362.3h10.5l2.6,2.6v5.9l-2.6,2.6H3.1v5.7h-3.3V362.3z M8.8,370.6l0.8-0.8v-3.9L8.8,365H3.1v5.6H8.8z"/>
	<path d="M28.5,373.5v5.6h-3.3v-4.8l-1.4-1.6h-5.2v6.4h-3.3v-16.8h10.5l2.6,2.6v5.1l-1.6,1.7L28.5,373.5z M18.6,370h5.8l0.8-0.8
		v-3.3l-0.8-0.8h-5.8V370z"/>
	<path d="M31.3,376.3v-11.3l2.8-2.8h8.6l2.8,2.8v11.3l-2.8,2.8H34L31.3,376.3z M40.9,376.3l1.2-1.2v-8.8l-1.2-1.2h-5.2l-1.2,1.2v8.8
		l1.2,1.2H40.9z"/>
	<path d="M48.3,362.3h10.8l2.9,2.9v11l-2.9,2.9H48.3V362.3z M57.4,376.3l1.2-1.2v-8.8l-1.2-1.2h-5.9v11.2H57.4z"/>
	<path d="M64.8,376.2v-13.9h3.3v12.8l1.2,1.2H74l1.2-1.2v-12.8h3.3v13.9l-2.9,2.9h-7.9L64.8,376.2z"/>
	<path d="M81.4,376.3v-11.3l2.8-2.8h8.2l2.7,2.7v2.6h-3.3v-1.4l-1.1-1.1h-4.8l-1.2,1.2v8.8l1.2,1.2h4.8l1.1-1.1v-1.4h3.3v2.6
		l-2.7,2.7h-8.2L81.4,376.3z"/>
	<path d="M97.3,362.3h12.1v2.8h-8.9v4.2h8.2v2.7h-8.2v4.3h8.9v2.8H97.3V362.3z"/>
	<path d="M125.1,373.5v5.6h-3.3v-4.8l-1.4-1.6h-5.2v6.4h-3.3v-16.8h10.5l2.6,2.6v5.1l-1.6,1.7L125.1,373.5z M115.1,370h5.8l0.8-0.8
		v-3.3l-0.8-0.8h-5.8V370z"/>
	<path d="M127.7,376.5v-2.4h3.2v1.4l0.8,0.8h5l0.8-0.8v-2.8l-0.8-0.8h-6.4l-2.6-2.6v-4.4l2.6-2.6h7.6l2.6,2.6v2.4h-3.2v-1.4
		l-0.8-0.8h-4.8l-0.8,0.8v2.5l0.8,0.8h6.4l2.6,2.6v4.7l-2.6,2.6h-7.8L127.7,376.5z"/>
</g>
<g id="static-group-3-line">
	<line class="st0" x1="774.7" y1="349" x2="1000" y2="349"/>
</g>
<g id="static-group-2-line">
	<line class="st0" x1="271" y1="349" x2="748.7" y2="349"/>
</g>
<g id="static-group-1-line">
	<line class="st0" x1="0" y1="349" x2="246.1" y2="349"/>
</g>
<line id="link-queue-consumer-4" class="st1" x1="672" y1="164" x2="887" y2="300"/>
<line id="link-queue-consumer-3" class="st1" x1="672" y1="164" x2="887" y2="208"/>
<line id="link-queue-consumer-2" class="st1" x1="672" y1="164" x2="887" y2="116"/>
<line id="link-queue-consumer-1" class="st1" x1="672" y1="164" x2="887" y2="24"/>
<g id="link-producer-4-queue">
	<line class="st1" x1="124" y1="300" x2="323" y2="165"/>
</g>
<g id="link-producer-3-queue">
	<line class="st1" x1="124" y1="208" x2="323" y2="165"/>
</g>
<g id="link-producer-2-queue">
	<line class="st1" x1="124" y1="116" x2="323" y2="165"/>
</g>
<g id="link-producer-1-queue">
	<line class="st1" x1="124" y1="24" x2="323" y2="165"/>
</g>
<g id="icon-consumer-4">
	<rect x="866" y="279" class="st2" width="42" height="42"/>
	<path class="st3" d="M905,282v36h-36v-36H905 M911,276h-48v48h48V276L911,276z"/>
	<path d="M909,278v44h-44v-44H909 M911,276h-48v48h48V276L911,276z"/>
</g>
<g id="icon-consumer-3">
	<rect x="866" y="187" class="st2" width="42" height="42"/>
	<path class="st3" d="M905,190v36h-36v-36H905 M911,184h-48v48h48V184L911,184z"/>
	<path d="M909,186v44h-44v-44H909 M911,184h-48v48h48V184L911,184z"/>
</g>
<g id="icon-consumer-2">
	<rect x="866" y="95" class="st2" width="42" height="42"/>
	<path class="st3" d="M905,98v36h-36V98H905 M911,92h-48v48h48V92L911,92z"/>
	<path d="M909,94v44h-44V94H909 M911,92h-48v48h48V92L911,92z"/>
</g>
<g id="icon-consumer-1">
	<rect x="866" y="3" class="st2" width="42" height="42"/>
	<path class="st3" d="M905,6v36h-36V6H905 M911,0h-48v48h48V0L911,0z"/>
	<path d="M909,2v44h-44V2H909 M911,0h-48v48h48V0L911,0z"/>
</g>
<g id="icon-queue">
	<line id="icon_-tunnel-b" class="st4" x1="672" y1="197" x2="324" y2="197"/>
	<line id="icon-tunnel-a" class="st4" x1="324" y1="131" x2="672" y2="131"/>
	
		<linearGradient id="icon-tunnel_00000121261319658831398420000006448407489025509265_" gradientUnits="userSpaceOnUse" x1="324" y1="164" x2="672" y2="164">
		<stop  offset="0" style="stop-color:#0071BC"/>
		<stop  offset="1" style="stop-color:#F7931E"/>
	</linearGradient>
	
		<rect id="icon-tunnel" x="324" y="136" style="fill:url(#icon-tunnel_00000121261319658831398420000006448407489025509265_);" width="348" height="56"/>
	<g id="icon-replica">
		<circle class="st6" cx="672" cy="164" r="31"/>
		<path class="st3" d="M672,136c15.4,0,28,12.6,28,28s-12.6,28-28,28s-28-12.6-28-28S656.6,136,672,136 M672,130
			c-18.8,0-34,15.2-34,34s15.2,34,34,34s34-15.2,34-34S690.8,130,672,130L672,130z"/>
		<path d="M672,132c17.6,0,32,14.4,32,32s-14.4,32-32,32s-32-14.4-32-32S654.4,132,672,132 M672,130c-18.8,0-34,15.2-34,34
			s15.2,34,34,34s34-15.2,34-34S690.8,130,672,130L672,130z"/>
	</g>
	<g id="icon-primary">
		<circle class="st7" cx="324" cy="164" r="31"/>
		<path class="st3" d="M324,136c15.4,0,28,12.6,28,28s-12.6,28-28,28s-28-12.6-28-28S308.6,136,324,136 M324,130
			c-18.8,0-34,15.2-34,34s15.2,34,34,34s34-15.2,34-34S342.8,130,324,130L324,130z"/>
		<path d="M324,132c17.6,0,32,14.4,32,32s-14.4,32-32,32s-32-14.4-32-32S306.4,132,324,132 M324,130c-18.8,0-34,15.2-34,34
			s15.2,34,34,34s34-15.2,34-34S342.8,130,324,130L324,130z"/>
	</g>
</g>
<g id="icon-producer-1">
	<rect x="103" y="3" class="st8" width="42" height="42"/>
	<path class="st3" d="M142,6v36h-36V6H142 M148,0h-48v48h48V0L148,0z"/>
	<path d="M146,2v44h-44V2H146 M148,0h-48v48h48V0L148,0z"/>
</g>
<g id="icon-producer-2">
	<rect x="103" y="95" class="st8" width="42" height="42"/>
	<path class="st3" d="M142,98v36h-36V98H142 M148,92h-48v48h48V92L148,92z"/>
	<path d="M146,94v44h-44V94H146 M148,92h-48v48h48V92L148,92z"/>
</g>
<g id="icon-producer-3">
	<rect x="103" y="187" class="st8" width="42" height="42"/>
	<path class="st3" d="M142,190v36h-36v-36H142 M148,184h-48v48h48V184L148,184z"/>
	<path d="M146,186v44h-44v-44H146 M148,184h-48v48h48V184L148,184z"/>
</g>
<g id="icon-producer-4">
	<rect x="103" y="279" class="st8" width="42" height="42"/>
	<path class="st3" d="M142,282v36h-36v-36H142 M148,276h-48v48h48V276L148,276z"/>
	<path d="M146,278v44h-44v-44H146 M148,276h-48v48h48V276L148,276z"/>
</g>
<g id="icon-message">
	<polygon class="st9" points="119,36 112,29 112,19 119,12 129,12 136,19 136,29 129,36 	"/>
	<path class="st10" d="M127.7,15l5.3,5.3v7.5l-5.3,5.3h-7.5l-5.3-5.3v-7.5l5.3-5.3H127.7 M130.2,9h-12.4l-8.8,8.8v12.4l8.8,8.8h12.4
		l8.8-8.8V17.8L130.2,9L130.2,9z"/>
	<polygon class="st11" points="130.2,9 117.8,9 109,17.8 109,30.2 117.8,39 130.2,39 139,30.2 139,17.8 	"/>
</g>
</svg>
